<?xml version="1.0" encoding="UTF-8" standalone="no"?>
<svg
   xmlns:dc="http://purl.org/dc/elements/1.1/"
   xmlns:cc="http://creativecommons.org/ns#"
   xmlns:rdf="http://www.w3.org/1999/02/22-rdf-syntax-ns#"
   xmlns:svg="http://www.w3.org/2000/svg"
   xmlns="http://www.w3.org/2000/svg"
   xmlns:sodipodi="http://sodipodi.sourceforge.net/DTD/sodipodi-0.dtd"
   xmlns:inkscape="http://www.inkscape.org/namespaces/inkscape"
   width="95"
   height="32"
   viewBox="0 0 95 32"
   fill="none"
   version="1.1"
   id="svg19"
   sodipodi:docname="angular.svg"
   inkscape:version="0.92.4 (5da689c313, 2019-01-14)">
  <metadata
     id="metadata23">
    <rdf:RDF>
      <cc:Work
         rdf:about="">
        <dc:format>image/svg+xml</dc:format>
        <dc:type
           rdf:resource="http://purl.org/dc/dcmitype/StillImage" />
      </cc:Work>
    </rdf:RDF>
  </metadata>
  <sodipodi:namedview
     pagecolor="#ffffff"
     bordercolor="#666666"
     borderopacity="1"
     objecttolerance="10"
     gridtolerance="10"
     guidetolerance="10"
     inkscape:pageopacity="0"
     inkscape:pageshadow="2"
     inkscape:window-width="1600"
     inkscape:window-height="840"
     id="namedview21"
     showgrid="false"
     inkscape:zoom="5.6568543"
     inkscape:cx="43.950726"
     inkscape:cy="28.808446"
     inkscape:window-x="0"
     inkscape:window-y="31"
     inkscape:window-maximized="1"
     inkscape:current-layer="svg19" />
  <path
     d="M90 0H31V32H90C92.7614 32 95 29.7614 95 27V5C95 2.23858 92.7614 0 90 0Z"
     id="path2"
     fill="#0F1418" />
  <path
     d="M31 0H5C2.23858 0 0 2.23858 0 5V27C0 29.7614 2.23858 32 5 32H31V0Z"
     id="path4"
     style="fill:#dd0330;fill-opacity:1"
     fill="#1DA1F2" />
  <text
     xml:space="preserve"
     style="font-style:normal;font-variant:normal;font-weight:bold;font-stretch:normal;font-size:13.55947781px;line-height:1.25;font-family:sans-serif;-inkscape-font-specification:'sans-serif Bold';letter-spacing:0px;word-spacing:0px;fill:#ffffff;fill-opacity:1;stroke:none;stroke-width:1.12995648"
     x="33.492386"
     y="19.780621"
     id="text1129"><tspan
       sodipodi:role="line"
       x="33.492386"
       y="19.780621"
       id="tspan1127"
       style="stroke-width:1.12995648"><tspan
         x="33.492386"
         y="19.780621"
         id="tspan1125"
         style="stroke-width:1.12995648">Angular</tspan></tspan></text>
  <path
     d="M 90,0 H 4.9999999 c -2.76142,0 -5,2.23858 -5,5 v 22 c 0,2.7614 2.23857,5 5,5 H 90 c 2.7614,0 5,-2.2386 5,-5 V 5 C 95,2.23858 92.7614,0 90,0 Z"
     id="path10"
     style="fill:url(#paint0_linear)"
     inkscape:connector-curvature="0" />
  <defs
     id="defs17">
    <linearGradient
       id="paint0_linear"
       x1="0"
       y1="0"
       x2="0"
       y2="32"
       gradientUnits="userSpaceOnUse">
      <stop
         stop-color="#BBBBBB"
         stop-opacity="0.1"
         id="stop12" />
      <stop
         offset="1"
         stop-opacity="0.1"
         id="stop14" />
    </linearGradient>
  </defs>
  <g
     id="g1019"
     transform="translate(65.212585,54.112901)"
     style="fill:#ffffff">
    <path
       style="fill:#ffffff;fill-opacity:1;stroke-width:0.10242979"
       d="m -49.067024,-29.08109 c -0.647868,-0.365912 -1.61583,-0.909999 -2.151025,-1.209082 -4.143084,-2.315276 -3.789903,-2.08753 -3.789903,-2.443878 0,-0.179275 -0.162637,-1.685645 -0.361415,-3.347487 -0.456875,-3.819601 -0.874444,-7.608139 -0.84168,-7.636426 0.01383,-0.01194 0.624367,-0.231425 1.35674,-0.487736 0.732373,-0.256312 2.184315,-0.772001 3.226539,-1.145976 1.042223,-0.373976 2.346631,-0.839465 2.898685,-1.034422 l 1.003735,-0.354465 1.35215,0.475531 c 0.743683,0.261543 1.974412,0.69559 2.734953,0.96455 0.760541,0.268959 2.047583,0.723512 2.860093,1.010116 0.812509,0.286605 1.513229,0.557039 1.557155,0.600965 0.04393,0.04393 -0.01443,0.909446 -0.129683,1.923379 -0.401658,3.533598 -1.109624,9.403572 -1.136442,9.422609 -0.07919,0.05621 -3.150271,1.756599 -6.496734,3.597095 -0.347172,0.190938 -0.692873,0.343417 -0.768223,0.338841 -0.07535,-0.0046 -0.667076,-0.307702 -1.314945,-0.673614 z m -1.748161,-4.157874 c 0.123925,-0.295766 0.363888,-0.89498 0.533251,-1.331587 l 0.307933,-0.793831 h 2.288753 2.288753 l 0.177913,0.486541 c 0.09785,0.267598 0.337603,0.866813 0.532777,1.331588 l 0.354862,0.845046 h 1.008503 1.008503 l -0.187931,-0.435327 c -0.440495,-1.020375 -1.391062,-3.17066 -1.799907,-4.071584 -0.632585,-1.393957 -1.225458,-2.721221 -2.310587,-5.172705 -0.523674,-1.183064 -0.983482,-2.187701 -1.021798,-2.232527 -0.06677,-0.07812 -0.291761,0.377605 -1.127484,2.283742 -0.209949,0.478859 -0.692424,1.562054 -1.072165,2.4071 -0.379742,0.845046 -1.242862,2.780969 -1.918046,4.302051 -0.675184,1.521083 -1.24885,2.800175 -1.274814,2.842427 -0.02596,0.04225 0.410302,0.07682 0.96948,0.07682 h 1.016686 z m 1.67781,-4.045977 c 0.09237,-0.295828 1.157552,-2.830688 1.318854,-3.138543 l 0.149755,-0.285819 0.318189,0.751902 c 0.72254,1.70741 1.151587,2.750441 1.151587,2.799554 0,0.02869 -0.673729,0.05216 -1.497178,0.05216 -1.37892,0 -1.492757,-0.01416 -1.441207,-0.179253 z"
       id="path1033"
       inkscape:connector-curvature="0" />
    <path
       style="fill:#ffffff;fill-opacity:1;stroke-width:0.10242979"
       d="m -50.80833,-30.043798 c -1.605587,-0.894146 -3.201142,-1.786324 -3.545678,-1.982617 l -0.626428,-0.356898 -0.07113,-0.747918 c -0.03912,-0.411355 -0.182989,-1.692834 -0.319709,-2.84773 -0.382463,-3.230722 -0.865836,-7.488326 -0.865836,-7.626385 0,-0.06815 0.149804,-0.173267 0.332897,-0.233594 0.183093,-0.06033 1.116484,-0.393537 2.074203,-0.740464 0.957719,-0.346927 2.179194,-0.784083 2.714389,-0.971459 0.535196,-0.187375 1.526204,-0.53487 2.202241,-0.772211 1.047789,-0.367855 1.274499,-0.415726 1.536447,-0.32443 0.477009,0.166252 3.984832,1.414852 5.070275,1.804751 0.535195,0.192247 1.457063,0.521054 2.048595,0.730683 0.591532,0.209629 1.087773,0.389887 1.102756,0.400573 0.03612,0.02576 -0.204651,2.216516 -0.697853,6.349734 -0.221839,1.859101 -0.433583,3.738328 -0.470541,4.17606 l -0.0672,0.795876 -0.932272,0.525812 c -0.51275,0.289197 -1.37016,0.766931 -1.905356,1.061632 -0.535195,0.294699 -1.727403,0.955985 -2.64935,1.469523 -0.921947,0.513537 -1.751629,0.929447 -1.843736,0.924243 -0.09211,-0.0052 -1.481131,-0.741035 -3.086718,-1.635181 z m 0.205082,-3.745639 c 0.234012,-0.598526 0.475373,-1.19774 0.536358,-1.331587 l 0.110881,-0.243358 h 2.277903 2.277902 l 0.476864,1.206571 c 0.262274,0.663614 0.512721,1.264591 0.556548,1.335503 0.05719,0.09253 0.354155,0.120598 1.051931,0.09941 l 0.972248,-0.02952 -1.115842,-2.50953 c -0.613713,-1.380242 -1.465379,-3.293118 -1.892591,-4.250837 -0.427212,-0.957718 -0.991752,-2.225287 -1.254532,-2.816819 -0.262781,-0.591532 -0.611373,-1.371673 -0.774649,-1.733647 l -0.296865,-0.658134 -0.348956,0.760564 c -0.191926,0.41831 -0.477173,1.060171 -0.633883,1.426358 -0.15671,0.366186 -1.206014,2.728473 -2.331788,5.249526 l -2.046861,4.583734 h 1.004928 1.004928 z m 1.470516,-3.597933 c 0.07943,-0.154925 0.353129,-0.78871 0.608227,-1.40841 0.255097,-0.6197 0.541881,-1.309789 0.637296,-1.533531 l 0.173484,-0.406803 0.15678,0.299224 c 0.166478,0.317735 1.231331,2.849163 1.325877,3.151949 0.05161,0.165289 -0.06485,0.179253 -1.495052,0.179253 h -1.551024 z"
       id="path1031"
       inkscape:connector-curvature="0" />
    <path
       style="fill:#ffffff;fill-opacity:1;stroke-width:0.10242979"
       d="m -49.425528,-29.279478 c -0.957718,-0.530941 -2.511709,-1.389825 -3.453311,-1.908629 -0.941603,-0.518805 -1.803454,-1.013875 -1.915224,-1.100154 -0.165579,-0.127816 -0.224518,-0.365569 -0.318207,-1.2836 -0.06324,-0.6197 -0.293034,-2.624763 -0.510649,-4.455696 -0.487282,-4.099813 -0.645898,-5.636073 -0.587902,-5.69407 0.02453,-0.02453 0.754622,-0.294307 1.622426,-0.599504 0.867803,-0.305198 2.361412,-0.839029 3.319131,-1.186291 0.957718,-0.347263 2.14819,-0.77064 2.645492,-0.940837 l 0.904186,-0.309449 0.632261,0.209941 c 0.59631,0.198004 2.516987,0.877873 6.2659,2.217965 0.901382,0.322209 1.655288,0.601666 1.675348,0.621014 0.03873,0.03735 -0.03687,0.752763 -0.502896,4.759363 -0.160543,1.380242 -0.365221,3.154838 -0.454839,3.943547 -0.08962,0.78871 -0.195555,1.707385 -0.235418,2.0415 l -0.07248,0.607483 -2.202241,1.218065 c -1.211232,0.669934 -2.594034,1.438484 -3.072894,1.707885 -0.478859,0.269402 -1.124167,0.630895 -1.434017,0.803318 l -0.563363,0.313496 z m -1.10516,-4.727709 0.517637,-1.30598 2.283856,-0.02762 c 1.7584,-0.02126 2.302986,0.0023 2.367004,0.10243 0.04573,0.07152 0.294876,0.671643 0.553653,1.333595 l 0.470506,1.203551 h 0.964473 c 0.530459,0 0.964472,-0.03781 0.964472,-0.08403 0,-0.04621 -0.882156,-2.0628 -1.960348,-4.481303 -1.078191,-2.418502 -2.110457,-4.742978 -2.293923,-5.165501 -0.63114,-1.453514 -0.961203,-2.151025 -1.017872,-2.151025 -0.05632,0 -0.323228,0.562159 -0.875374,1.843736 -0.157765,0.366187 -0.525373,1.195868 -0.816905,1.843736 -0.291532,0.647869 -0.683378,1.523643 -0.87077,1.946166 -0.187391,0.422523 -0.874944,1.966033 -1.527894,3.430022 -0.652951,1.463989 -1.187183,2.696987 -1.187183,2.739997 0,0.04301 0.429982,0.0782 0.955516,0.0782 h 0.955516 z m 1.34039,-3.05106 c -0.03024,-0.03024 0.151563,-0.548794 0.404016,-1.152335 0.252451,-0.603541 0.581364,-1.389859 0.730915,-1.747373 0.149552,-0.357514 0.310836,-0.657122 0.358409,-0.665794 0.04757,-0.0087 0.396383,0.725201 0.775133,1.630828 0.378748,0.905628 0.7178,1.693788 0.753447,1.751465 0.08831,0.142894 -2.882147,0.322983 -3.02192,0.183209 z"
       id="path1029"
       inkscape:connector-curvature="0" />
    <path
       style="fill:#ffffff;fill-opacity:1;stroke-width:0.10242979"
       d="m -51.229692,-30.256655 c -1.937202,-1.072074 -3.579285,-2.004187 -3.649074,-2.071362 -0.07671,-0.07384 -0.230334,-1.072965 -0.388494,-2.526726 -0.143883,-1.322525 -0.394685,-3.487785 -0.557337,-4.81169 -0.162653,-1.323905 -0.327074,-2.777221 -0.365381,-3.229591 l -0.06965,-0.822491 1.163594,-0.428025 c 0.639977,-0.235414 2.016322,-0.730597 3.058545,-1.100408 1.042224,-0.36981 2.263699,-0.806468 2.71439,-0.970351 0.450691,-0.163882 1.01033,-0.353 1.243644,-0.42026 0.484868,-0.139781 0.244554,-0.211303 5.004573,1.489466 1.521082,0.543488 3.035507,1.083203 3.365386,1.199368 l 0.599783,0.211209 -0.07061,0.780776 c -0.03883,0.429427 -0.180642,1.702645 -0.315128,2.829373 -0.134486,1.126727 -0.341018,2.92437 -0.458959,3.994762 -0.117942,1.070391 -0.269084,2.361006 -0.33587,2.868034 l -0.12143,0.921868 -3.175324,1.770732 c -1.746428,0.973903 -3.387983,1.881839 -3.647901,2.017638 l -0.472576,0.246905 z m 0.721143,-3.827355 0.543158,-1.382802 h 2.279716 2.279716 l 0.54231,1.382802 0.542308,1.382803 h 0.956127 c 0.525869,0 0.956127,-0.03293 0.956127,-0.07318 0,-0.04025 -0.699039,-1.641995 -1.553418,-3.559436 -2.073105,-4.652562 -2.415954,-5.423212 -3.054759,-6.866439 -0.299229,-0.676037 -0.575338,-1.265055 -0.613576,-1.308929 -0.06683,-0.07668 -0.327069,0.447522 -1.209165,2.435657 -0.518475,1.168573 -1.258541,2.822403 -1.764683,3.943547 -1.088534,2.411182 -2.274228,5.090255 -2.323315,5.249526 -0.04991,0.161949 0.03798,0.179253 0.910525,0.179253 h 0.96577 z m 1.290021,-3.098501 c 0.0414,-0.09859 0.165615,-0.409719 0.276033,-0.691401 0.110418,-0.281682 0.383401,-0.941607 0.606628,-1.466501 0.223229,-0.524893 0.452888,-1.078014 0.510353,-1.229157 0.08361,-0.219911 0.121744,-0.243964 0.190888,-0.120413 0.06576,0.117501 1.163067,2.706798 1.508123,3.558687 0.04018,0.0992 -0.310682,0.128037 -1.557718,0.128037 -1.493322,0 -1.604143,-0.01295 -1.534307,-0.179252 z"
       id="path1027"
       inkscape:connector-curvature="0" />
    <path
       style="fill:#ffffff;fill-opacity:1;stroke-width:0.10242979"
       d="m -48.094296,-28.52625 c -0.356122,-0.181528 -6.82284,-3.760283 -6.88627,-3.810938 -0.01311,-0.01047 -0.184189,-1.444886 -0.380182,-3.187597 -0.195994,-1.742711 -0.473355,-4.135797 -0.616357,-5.317968 -0.294012,-2.430542 -0.315311,-2.909604 -0.131967,-2.968272 0.165377,-0.05292 2.509051,-0.885075 3.764295,-1.336569 0.535196,-0.192503 1.74833,-0.628215 2.695854,-0.96825 0.947523,-0.340035 1.831639,-0.618245 1.964702,-0.618245 0.216291,0 1.167571,0.325004 4.762985,1.627271 0.591532,0.214254 1.692405,0.612896 2.446386,0.88587 l 1.370873,0.496318 -0.05987,0.774333 c -0.03293,0.425884 -0.222002,2.111043 -0.420165,3.744798 -0.198163,1.633755 -0.457251,3.845711 -0.575752,4.915458 -0.1185,1.069746 -0.223665,1.950542 -0.233699,1.957323 -0.02675,0.01808 -3.468354,1.927582 -5.190948,2.880093 -2.276155,1.258603 -2.033688,1.16911 -2.509885,0.926375 z m -2.943972,-4.302995 c 0.05634,-0.07042 0.136342,-0.24327 0.177782,-0.384111 0.04144,-0.140841 0.260211,-0.705486 0.486156,-1.254765 l 0.410809,-0.998691 h 2.285729 2.285729 l 0.535881,1.382802 0.535881,1.382803 h 0.955607 c 0.525584,0 0.955607,-0.04167 0.955607,-0.09259 0,-0.05093 -0.180803,-0.47729 -0.401784,-0.947475 -0.220981,-0.470186 -0.870909,-1.915032 -1.444286,-3.210769 -1.235795,-2.792697 -1.712449,-3.863739 -2.302048,-5.172704 -0.241069,-0.535196 -0.590164,-1.310725 -0.775766,-1.723397 l -0.337459,-0.750314 -0.152716,0.28938 c -0.08399,0.159159 -0.329086,0.692697 -0.544652,1.18564 -1.148778,2.626967 -4.122263,9.291902 -4.309483,9.659516 -0.39292,0.771515 -0.400077,0.762716 0.620349,0.762716 0.610064,0 0.950458,-0.04279 1.018664,-0.128038 z m 1.766385,-4.200326 c 0,-0.03706 0.624286,-1.587787 1.091857,-2.712167 0.216357,-0.520277 0.439468,-0.939476 0.495805,-0.931553 0.08055,0.01133 1.587661,3.454155 1.587661,3.626841 0,0.02376 -0.714448,0.04319 -1.587661,0.04319 -0.873214,0 -1.587662,-0.01184 -1.587662,-0.02631 z"
       id="path1025"
       inkscape:connector-curvature="0" />
    <path
       style="fill:#ffffff;fill-opacity:1;stroke-width:0.10242979"
       d="m -48.708519,-28.828359 c -1.014852,-0.5638 -2.350835,-1.310963 -3.533828,-1.97633 -0.422523,-0.237645 -1.213409,-0.680918 -1.757524,-0.985048 -1.134736,-0.634257 -1.000121,-0.340352 -1.261945,-2.755207 -0.163175,-1.505004 -0.937512,-8.177053 -1.018632,-8.777011 -0.0246,-0.181935 0.0092,-0.366173 0.07642,-0.416015 0.114631,-0.08506 0.880394,-0.365794 4.268974,-1.565054 0.816878,-0.289103 1.990671,-0.710825 2.60843,-0.937161 1.799716,-0.659383 1.15912,-0.765166 6.046888,0.998539 0.676036,0.243941 1.828371,0.65341 2.560744,0.909931 0.732373,0.256521 1.400162,0.505472 1.483976,0.553225 0.188576,0.10744 0.194109,0.03063 -0.307285,4.265701 -0.220101,1.859101 -0.493473,4.228309 -0.607493,5.264908 -0.114021,1.036598 -0.219596,1.892644 -0.23461,1.902325 -0.07379,0.04758 -1.74108,0.987654 -2.280754,1.285967 -0.338018,0.186844 -1.395791,0.773551 -2.350607,1.303791 -1.743739,0.968357 -2.687926,1.467445 -2.74187,1.449327 -0.01596,-0.0054 -0.443853,-0.240209 -0.95088,-0.521888 z m 6.241854,-4.103315 c -0.03926,-0.126757 -0.185972,-0.458385 -0.326023,-0.736952 -0.140052,-0.278566 -0.404037,-0.854734 -0.586634,-1.280373 -0.408796,-0.952918 -2.673784,-6.052146 -3.278338,-7.380609 -0.243555,-0.535195 -0.569369,-1.262124 -0.724031,-1.615397 -0.154661,-0.353273 -0.298752,-0.624765 -0.320203,-0.603315 -0.03791,0.03791 -0.480554,1.02154 -1.643771,3.652729 -1.15855,2.620632 -1.347652,3.046064 -1.821169,4.097192 -0.266477,0.591532 -0.658049,1.467307 -0.87016,1.946166 -0.21211,0.478859 -0.505833,1.13569 -0.652717,1.459624 l -0.267061,0.588972 h 0.964431 0.964432 l 0.207037,-0.553356 c 0.11387,-0.304344 0.35404,-0.903558 0.53371,-1.331587 l 0.326673,-0.778232 h 2.276432 2.276432 l 0.388272,0.947476 c 0.21355,0.521111 0.470788,1.143372 0.571641,1.382802 l 0.183369,0.435327 h 0.934531 c 0.922006,0 0.933574,-0.0031 0.863147,-0.230467 z m -6.805218,-4.116771 c 0,-0.02485 0.234119,-0.612543 0.520264,-1.305979 0.286146,-0.693437 0.620323,-1.525786 0.742616,-1.849665 0.122293,-0.323879 0.265048,-0.574684 0.317232,-0.557345 0.05218,0.01734 0.227793,0.351472 0.390241,0.742516 0.491952,1.184226 1.20497,2.949799 1.20497,2.983746 0,0.01755 -0.714448,0.03191 -1.587661,0.03191 -0.873214,0 -1.587662,-0.02033 -1.587662,-0.04519 z"
       id="path1023"
       inkscape:connector-curvature="0" />
    <path
       style="fill:#ffffff;fill-opacity:1;stroke-width:0.10242979"
       d="m -48.247585,-28.566361 c -0.423655,-0.245559 -1.254716,-0.709592 -3.277754,-1.830176 -0.422523,-0.234041 -1.252204,-0.694385 -1.843736,-1.022987 -0.591532,-0.328603 -1.200664,-0.661798 -1.353627,-0.740434 -0.188277,-0.09679 -0.295301,-0.248659 -0.331322,-0.470149 -0.06333,-0.389421 -0.321117,-2.694353 -0.414635,-3.707358 -0.03641,-0.394355 -0.249236,-2.210751 -0.472955,-4.036436 -0.22372,-1.825685 -0.370204,-3.352199 -0.325522,-3.392252 0.04468,-0.04005 0.380849,-0.166764 0.747035,-0.28158 0.366187,-0.114816 1.380242,-0.469961 2.253456,-0.789211 0.873214,-0.319249 2.094689,-0.758608 2.714389,-0.976351 0.619701,-0.217744 1.511777,-0.533403 1.982393,-0.701465 0.797528,-0.284808 0.88452,-0.296289 1.280372,-0.168989 0.425105,0.136707 1.770294,0.616182 5.034048,1.794323 0.957719,0.345715 2.077578,0.745318 2.488576,0.888007 l 0.74727,0.259435 -0.05652,0.424506 c -0.141209,1.060501 -0.8744,7.345138 -1.02344,8.772534 -0.211199,2.022722 -0.254928,2.257582 -0.433085,2.325947 -0.08046,0.03088 -0.639282,0.332422 -1.241831,0.670105 -1.139066,0.638359 -2.524319,1.407947 -4.014793,2.230447 -0.47886,0.264253 -1.086944,0.602243 -1.351299,0.751089 -0.264356,0.148847 -0.51787,0.270074 -0.563364,0.269395 -0.0455,-7.17e-4 -0.290139,-0.121458 -0.543652,-0.2684 z m -2.666726,-4.570173 c 0.06805,-0.183093 0.3092,-0.782308 0.535882,-1.331587 l 0.41215,-0.998691 h 2.281208 2.281209 l 0.354863,0.845046 c 0.195174,0.464775 0.434923,1.063989 0.532776,1.331587 l 0.177914,0.486542 h 0.963319 0.963319 l -0.26776,-0.588972 c -0.831301,-1.828539 -1.325044,-2.927195 -1.622652,-3.61065 -0.183985,-0.422523 -0.451393,-1.021737 -0.594237,-1.331587 -0.220724,-0.478778 -0.71977,-1.606075 -2.508623,-5.66673 -0.300311,-0.681702 -0.266874,-0.704511 -0.799333,0.54524 -0.180017,0.422523 -0.614134,1.413532 -0.964705,2.202241 -0.350571,0.788709 -0.811293,1.825811 -1.023828,2.30467 -0.212535,0.47886 -0.603999,1.354634 -0.86992,1.946166 -0.265922,0.591532 -0.635149,1.421214 -0.820504,1.843737 -0.185355,0.422522 -0.480227,1.06783 -0.655271,1.434017 -0.175043,0.366186 -0.318297,0.72341 -0.318341,0.793831 -5.9e-5,0.09282 0.250051,0.128037 0.90936,0.128037 h 0.909442 z m 1.701278,-4.097192 c 0.03996,-0.126757 0.255637,-0.668354 0.479279,-1.20355 0.223643,-0.535195 0.527454,-1.284213 0.675135,-1.664484 0.147681,-0.38027 0.31616,-0.691401 0.374398,-0.691401 0.05824,0 0.226716,0.311131 0.374397,0.691401 0.147681,0.380271 0.451492,1.129289 0.675135,1.664484 0.223642,0.535196 0.439318,1.076793 0.479278,1.20355 l 0.07266,0.230467 h -1.601467 -1.601467 z"
       id="path1021"
       inkscape:connector-curvature="0" />
  </g>
  <g
     id="g1001"
     transform="translate(226.56957,25.773389)" />
</svg>
