<?xml version="1.0" encoding="UTF-8" standalone="no"?>
<svg
   xmlns:dc="http://purl.org/dc/elements/1.1/"
   xmlns:cc="http://creativecommons.org/ns#"
   xmlns:rdf="http://www.w3.org/1999/02/22-rdf-syntax-ns#"
   xmlns:svg="http://www.w3.org/2000/svg"
   xmlns="http://www.w3.org/2000/svg"
   xmlns:sodipodi="http://sodipodi.sourceforge.net/DTD/sodipodi-0.dtd"
   xmlns:inkscape="http://www.inkscape.org/namespaces/inkscape"
   width="95"
   height="32"
   viewBox="0 0 95 32"
   fill="none"
   version="1.1"
   id="svg19"
   sodipodi:docname="django (copia 1).svg"
   inkscape:version="0.92.4 (5da689c313, 2019-01-14)">
  <metadata
     id="metadata23">
    <rdf:RDF>
      <cc:Work
         rdf:about="">
        <dc:format>image/svg+xml</dc:format>
        <dc:type
           rdf:resource="http://purl.org/dc/dcmitype/StillImage" />
      </cc:Work>
    </rdf:RDF>
  </metadata>
  <sodipodi:namedview
     pagecolor="#ffffff"
     bordercolor="#666666"
     borderopacity="1"
     objecttolerance="10"
     gridtolerance="10"
     guidetolerance="10"
     inkscape:pageopacity="0"
     inkscape:pageshadow="2"
     inkscape:window-width="1600"
     inkscape:window-height="840"
     id="namedview21"
     showgrid="false"
     inkscape:zoom="14.023044"
     inkscape:cx="24.303442"
     inkscape:cy="23.187856"
     inkscape:window-x="0"
     inkscape:window-y="31"
     inkscape:window-maximized="1"
     inkscape:current-layer="svg19" />
  <path
     d="M90 0H31V32H90C92.7614 32 95 29.7614 95 27V5C95 2.23858 92.7614 0 90 0Z"
     id="path2"
     fill="#0F1418" />
  <path
     d="M31 0H5C2.23858 0 0 2.23858 0 5V27C0 29.7614 2.23858 32 5 32H31V0Z"
     id="path4"
     fill="#1DA1F2"
     style="fill:#003d2b;fill-opacity:1" />
  <path
     style="fill:#ffffff;fill-opacity:1;stroke-width:0.15460275"
     d="m 19.645805,27.532644 -1.507672,-0.736364 1.043864,-0.680961 c 1.181196,-0.770547 1.922818,-1.740117 2.204578,-2.882176 0.112458,-0.45586 0.212292,-2.811632 0.262138,-6.185984 l 0.08049,-5.449744 h 1.854452 1.854451 l -0.07583,5.836254 c -0.07999,6.157811 -0.148471,6.810479 -0.859464,8.189648 -0.185079,0.359017 -0.546722,0.892175 -0.803642,1.184793 -0.575453,0.655405 -1.851068,1.490856 -2.250053,1.473653 -0.162618,-0.0071 -0.974123,-0.344118 -1.803342,-0.749119 z M 13.163632,23.335653 C 10.831389,23.021167 9.2714735,21.987597 8.4678491,20.224323 8.0709382,19.353439 8.023291,19.07828 8.0180756,17.62692 8.0113383,15.748485 8.2761611,14.831437 9.1672662,13.647605 10.329031,12.104199 12.020582,11.370403 14.386142,11.383657 l 1.426613,0.0081 0.04212,-2.718619 0.04212,-2.71862 1.817893,-0.04355 1.817894,-0.043569 -0.03996,8.546724 -0.03997,8.546714 -1.08222,0.177393 c -1.606536,0.263337 -4.035648,0.355495 -5.206991,0.197544 z m 2.620736,-5.901984 -0.04199,-2.976103 -0.772601,-0.04869 c -1.128737,-0.07112 -1.718934,0.08327 -2.31332,0.60515 -0.652546,0.572939 -0.911664,1.318534 -0.893572,2.571191 0.02745,1.900474 1.014007,2.824197 3.016564,2.824426 l 1.046907,1.24e-4 z M 21.694584,7.8869499 V 6.0317157 h 1.855234 1.855233 v 1.8552342 1.85523 h -1.855233 -1.855234 z"
     id="path1002"
     inkscape:connector-curvature="0"
     sodipodi:nodetypes="ccscscccccccccccsccccccccscccccccscccccccccccc" />
  <text
     xml:space="preserve"
     style="font-style:normal;font-variant:normal;font-weight:bold;font-stretch:normal;font-size:16.59685898px;line-height:1.25;font-family:sans-serif;-inkscape-font-specification:'sans-serif Bold';letter-spacing:0px;word-spacing:0px;fill:#ffffff;fill-opacity:1;stroke:none;stroke-width:1.13160396"
     x="37.075584"
     y="19.818991"
     id="text829"><tspan
       sodipodi:role="line"
       x="37.075584"
       y="19.818991"
       id="tspan827"
       style="stroke-width:1.13160396"><tspan
         x="37.075584"
         y="19.818991"
         style="font-size:13.57924747px;stroke-width:1.13160396"
         id="tspan825">Django</tspan></tspan></text>
  <defs
     id="defs17">
    <linearGradient
       id="paint0_linear"
       x1="0"
       y1="0"
       x2="0"
       y2="32"
       gradientUnits="userSpaceOnUse">
      <stop
         stop-color="#BBBBBB"
         stop-opacity="0.1"
         id="stop12" />
      <stop
         offset="1"
         stop-opacity="0.1"
         id="stop14" />
    </linearGradient>
  </defs>
</svg>
