<?xml version="1.0" encoding="UTF-8" standalone="no"?>
<svg
   xmlns:dc="http://purl.org/dc/elements/1.1/"
   xmlns:cc="http://creativecommons.org/ns#"
   xmlns:rdf="http://www.w3.org/1999/02/22-rdf-syntax-ns#"
   xmlns:svg="http://www.w3.org/2000/svg"
   xmlns="http://www.w3.org/2000/svg"
   xmlns:sodipodi="http://sodipodi.sourceforge.net/DTD/sodipodi-0.dtd"
   xmlns:inkscape="http://www.inkscape.org/namespaces/inkscape"
   width="95"
   height="32"
   viewBox="0 0 95 32"
   fill="none"
   version="1.1"
   id="svg19"
   sodipodi:docname="django.svg"
   inkscape:version="0.92.4 (5da689c313, 2019-01-14)">
  <metadata
     id="metadata23">
    <rdf:RDF>
      <cc:Work
         rdf:about="">
        <dc:format>image/svg+xml</dc:format>
        <dc:type
           rdf:resource="http://purl.org/dc/dcmitype/StillImage" />
      </cc:Work>
    </rdf:RDF>
  </metadata>
  <sodipodi:namedview
     pagecolor="#ffffff"
     bordercolor="#666666"
     borderopacity="1"
     objecttolerance="10"
     gridtolerance="10"
     guidetolerance="10"
     inkscape:pageopacity="0"
     inkscape:pageshadow="2"
     inkscape:window-width="1600"
     inkscape:window-height="840"
     id="namedview21"
     showgrid="false"
     inkscape:zoom="14.023044"
     inkscape:cx="23.149407"
     inkscape:cy="12.836939"
     inkscape:window-x="0"
     inkscape:window-y="31"
     inkscape:window-maximized="1"
     inkscape:current-layer="svg19" />
  <path
     d="M90 0H31V32H90C92.7614 32 95 29.7614 95 27V5C95 2.23858 92.7614 0 90 0Z"
     id="path2"
     fill="#0F1418" />
  <path
     d="M31 0H5C2.23858 0 0 2.23858 0 5V27C0 29.7614 2.23858 32 5 32H31V0Z"
     id="path4"
     fill="#1DA1F2"
     style="fill:#003d2b;fill-opacity:1" />
  <path
     style="fill:#ffffff;fill-opacity:1;stroke-width:0.06852663"
     d="m 20.617188,20.594043 c -0.07539,-0.0153 -0.329783,-0.07683 -0.565344,-0.136714 l -0.428292,-0.108886 v -0.753516 c 0,-0.6896 0.01013,-0.749585 0.119922,-0.707183 1.788098,0.690847 3.10083,0.341605 3.10083,-0.824953 0,-0.240729 -0.0066,-0.247411 -0.188447,-0.19065 -0.103651,0.03235 -0.49682,0.05826 -0.873715,0.05757 -0.816163,-0.0014 -1.160781,-0.128027 -1.632018,-0.599264 -0.452252,-0.452252 -0.621484,-0.94183 -0.621484,-1.797921 0,-0.834045 0.157023,-1.298927 0.608256,-1.800809 0.531697,-0.591374 1.342669,-0.935281 2.445458,-1.037039 0.820813,-0.07574 2.546209,0.06255 2.700075,0.216423 0.01596,0.01596 -0.08666,0.280405 -0.228048,0.587656 -0.229264,0.498218 -0.277202,0.558736 -0.44323,0.559542 l -0.186161,8.89e-4 0.01486,2.038667 c 0.01592,2.185989 -0.02413,2.570564 -0.330032,3.169358 -0.326285,0.638691 -1.058616,1.145809 -1.879474,1.301482 -0.352133,0.06678 -1.333124,0.08217 -1.613141,0.02531 z m 2.012971,-3.973648 0.214145,-0.04282 V 15.284131 13.99069 l -0.256975,4.11e-4 c -0.61717,8.89e-4 -1.169301,0.333668 -1.322155,0.796817 -0.123452,0.374063 -0.05861,1.211202 0.111835,1.443573 0.26433,0.360389 0.70776,0.498016 1.25315,0.388939 z M 5.9694893,19.820391 5.3012241,19.494002 5.7639095,19.192171 c 0.523558,-0.34154 0.8522765,-0.771296 0.9771644,-1.277506 0.049848,-0.202056 0.094097,-1.246237 0.1161912,-2.741896 l 0.03568,-2.415563 h 0.8219737 0.8219729 l -0.03361,2.586881 c -0.035454,2.729409 -0.065813,3.0187 -0.3809527,3.630007 C 8.040293,19.133226 7.8799987,19.369545 7.7661201,19.499246 7.5110546,19.78975 6.9456472,20.160058 6.7687986,20.152433 6.69672,20.149276 6.3370255,19.999905 5.9694799,19.820391 Z M 27.221143,18.036674 c -1.3734,-0.249871 -2.104021,-1.258838 -2.031006,-2.804769 0.04214,-0.892099 0.224145,-1.355202 0.732383,-1.863442 0.547254,-0.547252 0.981568,-0.706779 1.92423,-0.706779 0.924127,0 1.376843,0.161422 1.888951,0.67353 0.474475,0.474476 0.657934,0.955516 0.69936,1.833789 0.03865,0.819611 -0.121444,1.421185 -0.516214,1.939645 -0.270772,0.355609 -0.832051,0.741239 -1.248839,0.858023 -0.357924,0.100296 -1.088396,0.135585 -1.448865,0.07 z m 1.076514,-1.434141 c 0.336477,-0.205184 0.473434,-0.563964 0.473847,-1.241314 5.48e-4,-0.929549 -0.333382,-1.411898 -0.967983,-1.398133 -0.634854,0.01376 -0.950613,0.478454 -0.950053,1.398133 5.48e-4,0.916454 0.318054,1.370021 0.959018,1.370021 0.150759,0 0.369085,-0.05792 0.485171,-0.128707 z M 3.0963097,17.960102 C 2.0625582,17.820709 1.371136,17.362586 1.0149348,16.581026 0.83900663,16.195012 0.81788743,16.07305 0.81557569,15.429744 0.81259256,14.597141 0.92997027,14.190665 1.3249468,13.665939 1.8398911,12.981835 2.5896598,12.656585 3.6381788,12.66246 l 0.6323364,0.0036 0.018668,-1.20501 0.018668,-1.20501 0.8057693,-0.0193 0.8057686,-0.01931 -0.01771,3.788278 -0.017716,3.788275 -0.4796864,0.07863 c -0.7120863,0.116722 -1.7887743,0.15757 -2.3079646,0.08756 z m 1.1616238,-2.616015 -0.018611,-1.319138 -0.3424503,-0.02158 c -0.5003048,-0.03152 -0.7619058,0.03691 -1.0253641,0.268228 -0.2892361,0.253952 -0.4040887,0.584432 -0.3960698,1.139664 0.012168,0.842372 0.4494522,1.251806 1.3370724,1.251908 l 0.4640344,5.5e-5 z m 6.2173135,2.642258 C 9.7515253,17.819924 9.4743936,17.634858 9.2677829,17.180009 9.101401,16.81372 9.1018232,16.169179 9.2686717,15.801795 9.3383571,15.648369 9.5149915,15.423917 9.6611957,15.303013 9.9825299,15.03728 10.809438,14.762141 11.471737,14.700587 l 0.476824,-0.04431 v -0.259371 c 0,-0.144423 -0.04773,-0.307096 -0.10769,-0.367056 -0.221442,-0.221443 -1.31488,-0.09769 -2.0637473,0.233569 l -0.2955238,0.13072 V 13.75191 13.109683 L 9.8690504,12.96472 c 0.5976366,-0.223605 1.0307236,-0.300358 1.7026136,-0.30174 0.719566,-0.0014 1.107948,0.0948 1.410998,0.349801 0.414157,0.34849 0.432538,0.457894 0.460291,2.739653 l 0.02518,2.070121 -0.160176,0.03705 c -0.538413,0.124545 -2.467005,0.210828 -2.832716,0.126733 z m 1.327702,-1.160369 0.214146,-0.04282 V 16.25485 15.726545 l -0.411032,0.05621 c -0.563414,0.07704 -0.877683,0.219857 -0.959936,0.436201 -0.09655,0.253932 -0.0884,0.293151 0.100111,0.481655 0.133006,0.133005 0.238756,0.168201 0.505385,0.168201 0.185449,0 0.433547,-0.01928 0.551326,-0.04282 z m 2.423276,-1.343194 0.01798,-2.482452 0.497366,-0.115568 c 0.73442,-0.170652 1.896259,-0.279541 2.409826,-0.225855 0.996468,0.104173 1.62749,0.549881 1.779056,1.256602 0.04543,0.211814 0.07635,1.104119 0.07635,2.202875 v 1.846847 h -0.82232 -0.822319 v -1.751934 c 0,-1.77859 -0.02089,-1.944923 -0.268168,-2.134773 -0.113475,-0.08712 -0.818501,-0.116129 -1.085233,-0.04466 l -0.154186,0.04132 v 1.945019 1.945016 H 15.031412 14.208236 Z M 6.8775972,11.112567 v -0.82232 h 0.8223202 0.8223193 v 0.82232 0.822319 H 7.6999174 6.8775972 Z"
     id="path1002"
     inkscape:connector-curvature="0"
     sodipodi:nodetypes="cscscsccssscccccssscccccccscccccscscccccccccscssssccsccccsccscsccccccccscccccccsccccccccscccccsccccccccccccccsccccccscccsccccccccccccccccc" />
  <text
     xml:space="preserve"
     style="font-style:normal;font-variant:normal;font-weight:bold;font-stretch:normal;font-size:16.59685898px;line-height:1.25;font-family:sans-serif;-inkscape-font-specification:'sans-serif Bold';letter-spacing:0px;word-spacing:0px;fill:#ffffff;fill-opacity:1;stroke:none;stroke-width:1.13160396"
     x="37.075584"
     y="19.818991"
     id="text829"><tspan
       sodipodi:role="line"
       x="37.075584"
       y="19.818991"
       id="tspan827"
       style="stroke-width:1.13160396"><tspan
         x="37.075584"
         y="19.818991"
         style="font-size:13.57924747px;stroke-width:1.13160396"
         id="tspan825">Django</tspan></tspan></text>
  <defs
     id="defs17">
    <linearGradient
       id="paint0_linear"
       x1="0"
       y1="0"
       x2="0"
       y2="32"
       gradientUnits="userSpaceOnUse">
      <stop
         stop-color="#BBBBBB"
         stop-opacity="0.1"
         id="stop12" />
      <stop
         offset="1"
         stop-opacity="0.1"
         id="stop14" />
    </linearGradient>
  </defs>
</svg>
