<?xml version="1.0" encoding="UTF-8" standalone="no"?>
<svg
   width="107.22033"
   height="32"
   viewBox="0 0 107.22033 32"
   fill="none"
   version="1.1"
   id="svg19"
   sodipodi:docname="nodejs.svg"
   inkscape:version="1.2.1 (9c6d41e410, 2022-07-14)"
   xmlns:inkscape="http://www.inkscape.org/namespaces/inkscape"
   xmlns:sodipodi="http://sodipodi.sourceforge.net/DTD/sodipodi-0.dtd"
   xmlns="http://www.w3.org/2000/svg"
   xmlns:svg="http://www.w3.org/2000/svg">
  <sodipodi:namedview
     id="namedview21"
     pagecolor="#ffffff"
     bordercolor="#666666"
     borderopacity="1.0"
     inkscape:showpageshadow="2"
     inkscape:pageopacity="0.0"
     inkscape:pagecheckerboard="0"
     inkscape:deskcolor="#d1d1d1"
     showgrid="false"
     inkscape:zoom="7.375"
     inkscape:cx="68.542373"
     inkscape:cy="24.271186"
     inkscape:window-width="1920"
     inkscape:window-height="1009"
     inkscape:window-x="1432"
     inkscape:window-y="-8"
     inkscape:window-maximized="1"
     inkscape:current-layer="svg19" />
  <path
     d="M 103.24893,6.0169491e-7 H 31.135593 V 32.000001 h 72.113337 c 2.11813,0 3.83581,-2.2386 3.83581,-5 V 5.0000006 c 0,-2.76142 -1.71768,-4.99999999830509 -3.83581,-4.99999999830509 z"
     fill="#0f1418"
     id="path2"
     style="stroke-width:0.875879" />
  <g
     aria-label="Node.js"
     id="text427"
     style="font-size:14px;line-height:1.25;fill:#000000">
    <path
       d="m 47.952509,21.423729 h -2.688 l -4.354,-7.56 h -0.056 q 0.028,0.714 0.056,1.428 0.042,0.714 0.07,1.428 v 4.704 h -1.89 v -9.996 h 2.674 l 4.34,7.49 h 0.042 q -0.028,-0.686 -0.056,-1.372 -0.028,-0.686 -0.042,-1.386 v -4.732 h 1.904 z"
       style="font-weight:bold;-inkscape-font-specification:'sans-serif Bold';fill:#ffffff"
       id="path621" />
    <path
       d="m 57.248505,17.587729 q 0,1.904 -1.008,2.94 -0.994,1.036 -2.716,1.036 -1.064,0 -1.904,-0.462 -0.826,-0.462 -1.302,-1.344 -0.476,-0.896 -0.476,-2.17 0,-1.904 0.994,-2.926 0.994,-1.022 2.73,-1.022 1.078,0 1.904,0.462 0.826,0.462 1.302,1.344 0.476,0.882 0.476,2.142 z m -5.278,0 q 0,1.134 0.364,1.722 0.378,0.574 1.218,0.574 0.826,0 1.19,-0.574 0.378,-0.588 0.378,-1.722 0,-1.134 -0.378,-1.694 -0.364,-0.574 -1.204,-0.574 -0.826,0 -1.204,0.574 -0.364,0.56 -0.364,1.694 z"
       style="font-weight:bold;-inkscape-font-specification:'sans-serif Bold';fill:#ffffff"
       id="path623" />
    <path
       d="m 61.392498,21.563729 q -1.274,0 -2.086,-0.994 -0.798,-1.008 -0.798,-2.954 0,-1.96 0.812,-2.968 0.812,-1.008 2.128,-1.008 0.826,0 1.358,0.322 0.532,0.322 0.84,0.798 h 0.07 q -0.042,-0.224 -0.098,-0.644 -0.056,-0.434 -0.056,-0.882 v -2.45 h 2.086 v 10.64 h -1.596 l -0.406,-0.994 h -0.084 q -0.308,0.476 -0.826,0.812 -0.518,0.322 -1.344,0.322 z m 0.728,-1.666 q 0.854,0 1.204,-0.504 0.35,-0.518 0.378,-1.54 v -0.224 q 0,-1.106 -0.35,-1.694 -0.336,-0.602 -1.26,-0.602 -0.686,0 -1.078,0.602 -0.392,0.588 -0.392,1.708 0,1.12 0.392,1.694 0.392,0.56 1.106,0.56 z"
       style="font-weight:bold;-inkscape-font-specification:'sans-serif Bold';fill:#ffffff"
       id="path625" />
    <path
       d="m 70.98249,13.639729 q 1.582,0 2.506,0.91 0.924,0.896 0.924,2.562 v 1.008 h -4.928 q 0.028,0.882 0.518,1.386 0.504,0.504 1.386,0.504 0.728,0 1.33,-0.14 0.616,-0.154 1.26,-0.462 v 1.61 q -0.574,0.28 -1.19,0.406 -0.616,0.14 -1.498,0.14 -1.148,0 -2.03,-0.42 -0.882,-0.434 -1.386,-1.288 -0.504,-0.868 -0.504,-2.198 0,-1.33 0.448,-2.226 0.462,-0.896 1.274,-1.344 0.812,-0.448 1.89,-0.448 z m 0.014,1.484 q -0.616,0 -1.008,0.392 -0.392,0.392 -0.462,1.218 h 2.926 q -0.014,-0.686 -0.378,-1.148 -0.35,-0.462 -1.078,-0.462 z"
       style="font-weight:bold;-inkscape-font-specification:'sans-serif Bold';fill:#ffffff"
       id="path627" />
    <path
       d="m 75.812484,20.443729 q 0,-0.644 0.35,-0.896 0.35,-0.266 0.854,-0.266 0.49,0 0.84,0.266 0.35,0.252 0.35,0.896 0,0.616 -0.35,0.896 -0.35,0.266 -0.84,0.266 -0.504,0 -0.854,-0.266 -0.35,-0.28 -0.35,-0.896 z"
       style="font-weight:bold;-inkscape-font-specification:'sans-serif Bold';fill:#ffffff"
       id="path629" />
    <path
       d="m 80.012482,11.805729 q 0,-0.588 0.322,-0.798 0.336,-0.224 0.812,-0.224 0.462,0 0.798,0.224 0.336,0.21 0.336,0.798 0,0.574 -0.336,0.798 -0.336,0.224 -0.798,0.224 -0.476,0 -0.812,-0.224 -0.322,-0.224 -0.322,-0.798 z m -0.532,12.978 q -0.364,0 -0.742,-0.056 -0.378,-0.042 -0.63,-0.112 v -1.638 q 0.252,0.07 0.476,0.098 0.224,0.028 0.504,0.028 0.42,0 0.714,-0.238 0.294,-0.238 0.294,-0.924 v -8.162 h 2.086 v 8.47 q 0,0.7 -0.266,1.274 -0.266,0.574 -0.868,0.91 -0.588,0.35 -1.568,0.35 z"
       style="font-weight:bold;-inkscape-font-specification:'sans-serif Bold';fill:#ffffff"
       id="path631" />
    <path
       d="m 89.700487,19.155729 q 0,1.162 -0.826,1.792 -0.812,0.616 -2.436,0.616 -0.798,0 -1.372,-0.112 -0.574,-0.098 -1.148,-0.336 v -1.722 q 0.616,0.28 1.33,0.462 0.714,0.182 1.26,0.182 0.602,0 0.868,-0.182 0.266,-0.182 0.266,-0.476 0,-0.196 -0.112,-0.35 -0.098,-0.154 -0.448,-0.35 -0.35,-0.196 -1.092,-0.504 -0.728,-0.308 -1.19,-0.602 -0.448,-0.308 -0.672,-0.728 -0.224,-0.434 -0.224,-1.078 0,-1.064 0.826,-1.596 0.826,-0.532 2.198,-0.532 0.714,0 1.358,0.14 0.644,0.14 1.33,0.462 l -0.63,1.498 q -0.56,-0.238 -1.064,-0.392 -0.504,-0.168 -1.022,-0.168 -0.924,0 -0.924,0.504 0,0.182 0.112,0.336 0.126,0.14 0.462,0.308 0.35,0.168 1.022,0.448 0.658,0.266 1.134,0.56 0.476,0.28 0.728,0.714 0.266,0.434 0.266,1.106 z"
       style="font-weight:bold;-inkscape-font-specification:'sans-serif Bold';fill:#ffffff"
       id="path633" />
  </g>
  <path
     d="M 31.949153,6.0169491e-7 H 5.1530891 C 2.3071204,6.0169491e-7 0,2.2385806 0,5.0000006 V 27.000001 c 0,2.7614 2.3071204,5 5.1530891,5 H 31.949153 Z"
     fill="#F1C731"
     id="path4"
     style="fill:#5fa04e;fill-opacity:1;stroke-width:1.01519" />
  <path
     d="M 103.10168,0 H 4.2542374 C 1.9795762,0 0.13559326,2.23858 0.13559326,5 v 22.000001 c 0,2.7614 1.84398294,5 4.11864414,5 H 103.10168 c 2.27432,0 4.11865,-2.2386 4.11865,-5 V 5 c 0,-2.76142 -1.84433,-5 -4.11865,-5 z"
     fill="url(#paint0_linear)"
     id="path10"
     style="fill:url(#paint0_linear);stroke-width:0.907595" />
  <defs
     id="defs17">
    <linearGradient
       id="paint0_linear"
       x1="0"
       y1="0"
       x2="0"
       y2="32"
       gradientUnits="userSpaceOnUse"
       gradientTransform="matrix(0.8237288,0,0,1,0.13559326,6.0169491e-7)">
      <stop
         stop-color="#BBBBBB"
         stop-opacity="0.1"
         id="stop12" />
      <stop
         offset="1"
         stop-opacity="0.1"
         id="stop14" />
    </linearGradient>
  </defs>
  <path
     d="m 16.093143,27.291073 c -0.287,0 -0.5549,-0.077 -0.8036,-0.2118 l -2.5446,-1.5208 c -0.3826,-0.2118 -0.1913,-0.2888 -0.0765,-0.3273 0.5166,-0.1733 0.6122,-0.2118 1.1479,-0.5198 0.0574,-0.0385 0.134,-0.0192 0.1914,0.0193 l 1.9515,1.1743 c 0.0765,0.0385 0.1721,0.0385 0.2295,0 l 7.634,-4.4471 c 0.076,-0.0385 0.115,-0.1155 0.115,-0.2117 v -8.8749 c 0,-0.0962 -0.039,-0.1732 -0.115,-0.2117 l -7.634,-4.4278006 c -0.0765,-0.0385 -0.1722,-0.0385 -0.2295,0 L 8.3254427,12.159573 c -0.0766,0.0385 -0.1148,0.1347 -0.1148,0.2117 v 8.8749 c 0,0.077 0.0382,0.1732 0.1148,0.2117 l 2.0854003,1.2129 c 1.1288,0.5775 1.8367,-0.0963 1.8367,-0.7701 v -8.7593 c 0,-0.1155 0.0956,-0.231 0.2296,-0.231 h 0.9757 c 0.1148,0 0.2296,0.0962 0.2296,0.231 v 8.7593 c 0,1.5209 -0.8227,2.4064 -2.2576,2.4064 -0.44,0 -0.7844,0 -1.7602003,-0.4812 l -2.0089,-1.1551 c -0.4974,-0.2888 -0.8035,-0.8278 -0.8035,-1.4054 v -8.8748 c 0,-0.5776 0.3061,-1.1166 0.8035,-1.4054 L 15.289543,6.5381724 c 0.4783,-0.2695 1.1288,-0.2695 1.6071,0 l 7.6341,4.4470006 c 0.497,0.2888 0.803,0.8278 0.803,1.4054 v 8.8748 c 0,0.5776 -0.306,1.1166 -0.803,1.4054 l -7.6341,4.447 c -0.2296,0.0963 -0.5165,0.1733 -0.8035,0.1733 z"
     fill="#5fa04e"
     id="path196"
     style="fill:#ffffff;fill-opacity:1" />
  <path
     d="m 18.465743,21.188273 c -3.3486,0 -4.0373,-1.5401 -4.0373,-2.8492 0,-0.1155 0.0956,-0.231 0.2295,-0.231 h 0.9949 c 0.1148,0 0.2105,0.077 0.2105,0.1925 0.153,1.0203 0.5931,1.5209 2.6214,1.5209 1.607,0 2.296,-0.3658 2.296,-1.2321 0,-0.5005 -0.192,-0.8663 -2.6981,-1.1166 -2.0854,-0.2118 -3.3864,-0.6738 -3.3864,-2.3487 0,-1.5593 1.301,-2.4834 3.4821,-2.4834 2.4494,0 3.6544,0.8471 3.8074,2.6952 0,0.0578 -0.019,0.1155 -0.057,0.1733 -0.039,0.0385 -0.096,0.077 -0.154,0.077 h -1.014 c -0.095,0 -0.191,-0.077 -0.21,-0.1733 -0.23,-1.0588 -0.823,-1.4053 -2.3915,-1.4053 -1.7602,0 -1.9707,0.616 -1.9707,1.078 0,0.5583 0.2487,0.7316 2.6212,1.0396 2.353,0.308 3.463,0.7508 3.463,2.4064 0,1.6941 -1.397,2.6567 -3.807,2.6567 z"
     fill="#5fa04e"
     id="path198"
     style="fill:#ffffff;fill-opacity:1" />
  <path
     d="m 29.486743,11.870573 c 0,0.8086 -0.67,1.4824 -1.474,1.4824 -0.803,0 -1.473,-0.6546 -1.473,-1.4824 0,-0.847 0.689,-1.4823 1.473,-1.4823 0.785,0 1.474,0.6545 1.474,1.4823 z m -2.717,0 c 0,0.6931 0.555,1.2514 1.224,1.2514 0.689,0 1.244,-0.5776 1.244,-1.2514 0,-0.693 -0.555,-1.232 -1.244,-1.232 -0.65,0 -1.224,0.539 -1.224,1.232 z m 0.689,-0.8278 h 0.574 c 0.191,0 0.574,0 0.574,0.4428 0,0.308 -0.192,0.3658 -0.307,0.4043 0.23,0.0192 0.249,0.1733 0.268,0.385 0.019,0.1348 0.039,0.3658 0.077,0.4428 h -0.345 c 0,-0.077 -0.057,-0.5005 -0.057,-0.5198 -0.019,-0.0962 -0.057,-0.1347 -0.172,-0.1347 h -0.287 v 0.6737 h -0.325 z m 0.306,0.7316 h 0.248 c 0.211,0 0.249,-0.154 0.249,-0.231 0,-0.231 -0.153,-0.231 -0.249,-0.231 h -0.267 v 0.462 z"
     fill="#5fa04e"
     id="path200"
     style="fill:#ffffff;fill-opacity:1" />
</svg>
