<?xml version="1.0" encoding="UTF-8" standalone="no"?>
<svg
   width="130"
   height="32"
   viewBox="0 0 130 32"
   fill="none"
   version="1.1"
   id="svg19"
   sodipodi:docname="nodejs.svg"
   inkscape:version="1.2.1 (9c6d41e410, 2022-07-14)"
   xmlns:inkscape="http://www.inkscape.org/namespaces/inkscape"
   xmlns:sodipodi="http://sodipodi.sourceforge.net/DTD/sodipodi-0.dtd"
   xmlns="http://www.w3.org/2000/svg"
   xmlns:svg="http://www.w3.org/2000/svg">
  <sodipodi:namedview
     id="namedview21"
     pagecolor="#ffffff"
     bordercolor="#666666"
     borderopacity="1.0"
     inkscape:showpageshadow="2"
     inkscape:pageopacity="0.0"
     inkscape:pagecheckerboard="0"
     inkscape:deskcolor="#d1d1d1"
     showgrid="false"
     inkscape:zoom="7.375"
     inkscape:cx="68.610169"
     inkscape:cy="24.271186"
     inkscape:window-width="1920"
     inkscape:window-height="1009"
     inkscape:window-x="1432"
     inkscape:window-y="-8"
     inkscape:window-maximized="1"
     inkscape:current-layer="svg19" />
  <path
     d="M 125.13559,0 H 31.135593 v 32 h 93.999997 c 2.761,0 5,-2.2386 5,-5 V 5 c 0,-2.76142 -2.239,-5 -5,-5 z"
     fill="#0f1418"
     id="path2" />
  <path
     d="M31 0H5C2.23858 0 0 2.23858 0 5V27C0 29.7614 2.23858 32 5 32H31V0Z"
     fill="#F1C731"
     id="path4"
     style="fill:#5fa04e;fill-opacity:1" />
  <path
     d="M 125.13558,-6.0169491e-7 H 5.1355934 C 2.3741734,-6.0169491e-7 0.13559326,2.2385794 0.13559326,4.9999994 V 27 c 0,2.7614 2.23858014,5 5.00000014,5 H 125.13558 c 2.761,0 5,-2.2386 5,-5 V 4.9999994 c 0,-2.76142 -2.239,-5.00000000169491 -5,-5.00000000169491 z"
     fill="url(#paint0_linear)"
     id="path10"
     style="fill:url(#paint0_linear)" />
  <defs
     id="defs17">
    <linearGradient
       id="paint0_linear"
       x1="0"
       y1="0"
       x2="0"
       y2="32"
       gradientUnits="userSpaceOnUse"
       gradientTransform="translate(0.13559326)">
      <stop
         stop-color="#BBBBBB"
         stop-opacity="0.1"
         id="stop12" />
      <stop
         offset="1"
         stop-opacity="0.1"
         id="stop14" />
    </linearGradient>
  </defs>
  <path
     d="m 16.093143,27.291072 c -0.287,0 -0.5549,-0.077 -0.8036,-0.2118 l -2.5446,-1.5208 c -0.3826,-0.2118 -0.1913,-0.2888 -0.0765,-0.3273 0.5166,-0.1733 0.6122,-0.2118 1.1479,-0.5198 0.0574,-0.0385 0.134,-0.0192 0.1914,0.0193 l 1.9515,1.1743 c 0.0765,0.0385 0.1721,0.0385 0.2295,0 l 7.634,-4.4471 c 0.076,-0.0385 0.115,-0.1155 0.115,-0.2117 v -8.8749 c 0,-0.0962 -0.039,-0.1732 -0.115,-0.2117 l -7.634,-4.4278002 c -0.0765,-0.0385 -0.1722,-0.0385 -0.2295,0 L 8.3254427,12.159572 c -0.0766,0.0385 -0.1148,0.1347 -0.1148,0.2117 v 8.8749 c 0,0.077 0.0382,0.1732 0.1148,0.2117 l 2.0854003,1.2129 c 1.1288,0.5775 1.8367,-0.0963 1.8367,-0.7701 v -8.7593 c 0,-0.1155 0.0956,-0.231 0.2296,-0.231 h 0.9757 c 0.1148,0 0.2296,0.0962 0.2296,0.231 v 8.7593 c 0,1.5209 -0.8227,2.4064 -2.2576,2.4064 -0.44,0 -0.7844,0 -1.7602003,-0.4812 l -2.0089,-1.1551 c -0.4974,-0.2888 -0.8035,-0.8278 -0.8035,-1.4054 v -8.8748 c 0,-0.5776 0.3061,-1.1166 0.8035,-1.4054 L 15.289543,6.5381718 c 0.4783,-0.2695 1.1288,-0.2695 1.6071,0 l 7.6341,4.4470002 c 0.497,0.2888 0.803,0.8278 0.803,1.4054 v 8.8748 c 0,0.5776 -0.306,1.1166 -0.803,1.4054 l -7.6341,4.447 c -0.2296,0.0963 -0.5165,0.1733 -0.8035,0.1733 z"
     fill="#5fa04e"
     id="path196"
     style="fill:#ffffff;fill-opacity:1" />
  <path
     d="m 18.465743,21.188272 c -3.3486,0 -4.0373,-1.5401 -4.0373,-2.8492 0,-0.1155 0.0956,-0.231 0.2295,-0.231 h 0.9949 c 0.1148,0 0.2105,0.077 0.2105,0.1925 0.153,1.0203 0.5931,1.5209 2.6214,1.5209 1.607,0 2.296,-0.3658 2.296,-1.2321 0,-0.5005 -0.192,-0.8663 -2.6981,-1.1166 -2.0854,-0.2118 -3.3864,-0.6738 -3.3864,-2.3487 0,-1.5593 1.301,-2.4834 3.4821,-2.4834 2.4494,0 3.6544,0.8471 3.8074,2.6952 0,0.0578 -0.019,0.1155 -0.057,0.1733 -0.039,0.0385 -0.096,0.077 -0.154,0.077 h -1.014 c -0.095,0 -0.191,-0.077 -0.21,-0.1733 -0.23,-1.0588 -0.823,-1.4053 -2.3915,-1.4053 -1.7602,0 -1.9707,0.616 -1.9707,1.078 0,0.5583 0.2487,0.7316 2.6212,1.0396 2.353,0.308 3.463,0.7508 3.463,2.4064 0,1.6941 -1.397,2.6567 -3.807,2.6567 z"
     fill="#5fa04e"
     id="path198"
     style="fill:#ffffff;fill-opacity:1" />
  <path
     d="m 29.486743,11.870572 c 0,0.8086 -0.67,1.4824 -1.474,1.4824 -0.803,0 -1.473,-0.6546 -1.473,-1.4824 0,-0.847 0.689,-1.4823 1.473,-1.4823 0.785,0 1.474,0.6545 1.474,1.4823 z m -2.717,0 c 0,0.6931 0.555,1.2514 1.224,1.2514 0.689,0 1.244,-0.5776 1.244,-1.2514 0,-0.693 -0.555,-1.232 -1.244,-1.232 -0.65,0 -1.224,0.539 -1.224,1.232 z m 0.689,-0.8278 h 0.574 c 0.191,0 0.574,0 0.574,0.4428 0,0.308 -0.192,0.3658 -0.307,0.4043 0.23,0.0192 0.249,0.1733 0.268,0.385 0.019,0.1348 0.039,0.3658 0.077,0.4428 h -0.345 c 0,-0.077 -0.057,-0.5005 -0.057,-0.5198 -0.019,-0.0962 -0.057,-0.1347 -0.172,-0.1347 h -0.287 v 0.6737 h -0.325 z m 0.306,0.7316 h 0.248 c 0.211,0 0.249,-0.154 0.249,-0.231 0,-0.231 -0.153,-0.231 -0.249,-0.231 h -0.267 v 0.462 z"
     fill="#5fa04e"
     id="path200"
     style="fill:#ffffff;fill-opacity:1" />
  <g
     aria-label="Node.js"
     id="text1836"
     style="font-size:22px;fill:#ffffff">
    <path
       d="m 52.922949,23.457626 h -4.224 l -6.842,-11.88 h -0.088 q 0.044,1.122 0.088,2.244 0.066,1.122 0.11,2.244 v 7.392 h -2.97 V 7.7496263 h 4.202 l 6.82,11.7699997 h 0.066 q -0.044,-1.078 -0.088,-2.156 -0.044,-1.078 -0.066,-2.178 V 7.7496263 h 2.992 z"
       style="-inkscape-font-specification:'sans-serif Bold'"
       id="path3402" />
    <path
       d="m 67.530943,17.429626 q 0,2.992 -1.584,4.62 -1.562,1.628 -4.268,1.628 -1.672,0 -2.992,-0.726 -1.298,-0.726 -2.046,-2.112 -0.748,-1.408 -0.748,-3.41 0,-2.992 1.562,-4.598 1.562,-1.606 4.29,-1.606 1.694,0 2.992,0.726 1.298,0.726 2.046,2.112 0.748,1.386 0.748,3.366 z m -8.294,0 q 0,1.782 0.572,2.706 0.594,0.902 1.914,0.902 1.298,0 1.87,-0.902 0.594,-0.924 0.594,-2.706 0,-1.782 -0.594,-2.662 -0.572,-0.902 -1.892,-0.902 -1.298,0 -1.892,0.902 -0.572,0.88 -0.572,2.662 z"
       style="-inkscape-font-specification:'sans-serif Bold'"
       id="path3399" />
    <path
       d="m 74.042931,23.677626 q -2.002,0 -3.278,-1.562 -1.254,-1.584 -1.254,-4.642 0,-3.08 1.276,-4.664 1.276,-1.584 3.344,-1.584 1.298,0 2.134,0.506 0.836,0.506 1.32,1.254 h 0.11 q -0.066,-0.352 -0.154,-1.012 -0.088,-0.682 -0.088,-1.386 V 6.7376263 h 3.278 V 23.457626 h -2.508 l -0.638,-1.562 h -0.132 q -0.484,0.748 -1.298,1.276 -0.814,0.506 -2.112,0.506 z m 1.144,-2.618 q 1.342,0 1.892,-0.792 0.55,-0.814 0.594,-2.42 v -0.352 q 0,-1.738 -0.55,-2.662 -0.528,-0.946 -1.98,-0.946 -1.078,0 -1.694,0.946 -0.616,0.924 -0.616,2.684 0,1.76 0.616,2.662 0.616,0.88 1.738,0.88 z"
       style="-inkscape-font-specification:'sans-serif Bold'"
       id="path3396" />
    <path
       d="m 89.112918,11.225626 q 2.486,0 3.938,1.43 1.452,1.408 1.452,4.026 v 1.584 h -7.744 q 0.044,1.386 0.814,2.178 0.792,0.792 2.178,0.792 1.144,0 2.09,-0.22 0.968,-0.242 1.98,-0.726 v 2.53 q -0.902,0.44 -1.87,0.638 -0.968,0.22 -2.354,0.22 -1.804,0 -3.19,-0.66 -1.386,-0.682 -2.178,-2.024 -0.792,-1.364 -0.792,-3.454 0,-2.09 0.704,-3.498 0.726,-1.408 2.002,-2.112 1.276,-0.704 2.97,-0.704 z m 0.022,2.332 q -0.968,0 -1.584,0.616 -0.616,0.616 -0.726,1.914 h 4.598 q -0.022,-1.078 -0.594,-1.804 -0.55,-0.726 -1.694,-0.726 z"
       style="-inkscape-font-specification:'sans-serif Bold'"
       id="path3393" />
    <path
       d="m 96.70291,21.917626 q 0,-1.012 0.55,-1.408 0.55,-0.418 1.342,-0.418 0.77,0 1.32,0.418 0.55,0.396 0.55,1.408 0,0.968 -0.55,1.408 -0.55,0.418 -1.32,0.418 -0.792,0 -1.342,-0.418 -0.55,-0.44 -0.55,-1.408 z"
       style="-inkscape-font-specification:'sans-serif Bold'"
       id="path3390" />
    <path
       d="m 103.30291,8.3436263 q 0,-0.924 0.506,-1.254 0.528,-0.352 1.276,-0.352 0.726,0 1.254,0.352 0.528,0.33 0.528,1.254 0,0.902 -0.528,1.254 -0.528,0.352 -1.254,0.352 -0.748,0 -1.276,-0.352 -0.506,-0.352 -0.506,-1.254 z m -0.836,20.3939997 q -0.572,0 -1.166,-0.088 -0.594,-0.066 -0.99,-0.176 v -2.574 q 0.396,0.11 0.748,0.154 0.352,0.044 0.792,0.044 0.66,0 1.122,-0.374 0.462,-0.374 0.462,-1.452 v -12.826 h 3.278 v 13.31 q 0,1.1 -0.418,2.002 -0.418,0.902 -1.364,1.43 -0.924,0.55 -2.464,0.55 z"
       style="-inkscape-font-specification:'sans-serif Bold'"
       id="path3387" />
    <path
       d="m 118.52691,19.893626 q 0,1.826 -1.298,2.816 -1.276,0.968 -3.828,0.968 -1.254,0 -2.156,-0.176 -0.902,-0.154 -1.804,-0.528 v -2.706 q 0.968,0.44 2.09,0.726 1.122,0.286 1.98,0.286 0.946,0 1.364,-0.286 0.418,-0.286 0.418,-0.748 0,-0.308 -0.176,-0.55 -0.154,-0.242 -0.704,-0.55 -0.55,-0.308 -1.716,-0.792 -1.144,-0.484 -1.87,-0.946 -0.704,-0.484 -1.056,-1.144 -0.352,-0.682 -0.352,-1.694 0,-1.672 1.298,-2.508 1.298,-0.836 3.454,-0.836 1.122,0 2.134,0.22 1.012,0.22 2.09,0.726 l -0.99,2.354 q -0.88,-0.374 -1.672,-0.616 -0.792,-0.264 -1.606,-0.264 -1.452,0 -1.452,0.792 0,0.286 0.176,0.528 0.198,0.22 0.726,0.484 0.55,0.264 1.606,0.704 1.034,0.418 1.782,0.88 0.748,0.44 1.144,1.122 0.418,0.682 0.418,1.738 z"
       style="-inkscape-font-specification:'sans-serif Bold'"
       id="path3384" />
  </g>
</svg>
