<?xml version="1.0" encoding="UTF-8" standalone="no"?>
<svg
   width="130"
   height="32"
   viewBox="0 0 130 32"
   fill="none"
   version="1.1"
   id="svg19"
   sodipodi:docname="ts.svg"
   inkscape:version="1.2.1 (9c6d41e410, 2022-07-14)"
   xmlns:inkscape="http://www.inkscape.org/namespaces/inkscape"
   xmlns:sodipodi="http://sodipodi.sourceforge.net/DTD/sodipodi-0.dtd"
   xmlns="http://www.w3.org/2000/svg"
   xmlns:svg="http://www.w3.org/2000/svg">
  <sodipodi:namedview
     id="namedview21"
     pagecolor="#ffffff"
     bordercolor="#666666"
     borderopacity="1.0"
     inkscape:showpageshadow="2"
     inkscape:pageopacity="0.0"
     inkscape:pagecheckerboard="0"
     inkscape:deskcolor="#d1d1d1"
     showgrid="false"
     inkscape:zoom="7.375"
     inkscape:cx="51.59322"
     inkscape:cy="22.237288"
     inkscape:window-width="1920"
     inkscape:window-height="1009"
     inkscape:window-x="1432"
     inkscape:window-y="-8"
     inkscape:window-maximized="1"
     inkscape:current-layer="svg19" />
  <path
     d="M125 0H31V32H125C127.761 32 130 29.7614 130 27V5C130 2.23858 127.761 0 125 0Z"
     fill="#0F1418"
     id="path2" />
  <path
     d="M31 0H5C2.23858 0 0 2.23858 0 5V27C0 29.7614 2.23858 32 5 32H31V0Z"
     fill="#F1C731"
     id="path4"
     style="fill:#2f72bc;fill-opacity:1.0" />
  <path
     d="M 125,-2.6101695e-7 H 5 C 2.23858,-2.6101695e-7 0,2.2385797 0,4.9999997 V 26.999999 c 0,2.7614 2.23858,5 5,5 h 120 c 2.761,0 5,-2.2386 5,-5 V 4.9999997 C 130,2.2385797 127.761,-2.6101695e-7 125,-2.6101695e-7 Z"
     fill="url(#paint0_linear)"
     id="path10"
     style="fill:url(#paint0_linear)" />
  <defs
     id="defs17">
    <linearGradient
       id="paint0_linear"
       x1="0"
       y1="0"
       x2="0"
       y2="32"
       gradientUnits="userSpaceOnUse">
      <stop
         stop-color="#BBBBBB"
         stop-opacity="0.1"
         id="stop12" />
      <stop
         offset="1"
         stop-opacity="0.1"
         id="stop14" />
    </linearGradient>
  </defs>
  <g
     aria-label="TypeScript"
     id="text1757"
     style="font-weight:bold;font-size:15px;line-height:1.25;-inkscape-font-specification:'sans-serif Bold';fill:#ffffff">
    <path
       d="m 46.797033,21.457626 h -2.265 v -8.82 h -2.91 v -1.89 h 8.085 v 1.89 h -2.91 z"
       id="path2618" />
    <path
       d="m 49.707033,13.267626 h 2.445 l 1.545,4.605 q 0.12,0.345 0.18,0.69 0.06,0.345 0.09,0.735 h 0.045 q 0.045,-0.39 0.12,-0.735 0.075,-0.345 0.195,-0.69 l 1.515,-4.605 h 2.4 l -3.465,9.24 q -0.48,1.275 -1.365,1.905 -0.885,0.645 -2.055,0.645 -0.39,0 -0.66,-0.045 -0.27,-0.03 -0.48,-0.075 v -1.77 q 0.15,0.03 0.39,0.06 0.24,0.03 0.495,0.03 0.705,0 1.11,-0.435 0.405,-0.42 0.615,-1.02 l 0.135,-0.405 z"
       id="path2620" />
    <path
       d="m 63.972037,13.117626 q 1.38,0 2.235,1.08 0.855,1.065 0.855,3.15 0,2.1 -0.885,3.18 -0.885,1.08 -2.265,1.08 -0.885,0 -1.41,-0.315 -0.525,-0.33 -0.855,-0.735 h -0.12 q 0.12,0.63 0.12,1.2 v 3.3 h -2.235 v -11.79 h 1.815 l 0.315,1.065 h 0.105 q 0.33,-0.495 0.885,-0.855 0.555,-0.36 1.44,-0.36 z m -0.72,1.785 q -0.87,0 -1.23,0.555 -0.36,0.54 -0.375,1.635 v 0.24 q 0,1.185 0.345,1.83 0.36,0.63 1.29,0.63 0.765,0 1.125,-0.63 0.375,-0.645 0.375,-1.845 0,-2.415 -1.53,-2.415 z"
       id="path2622" />
    <path
       d="m 72.282028,13.117626 q 1.695,0 2.685,0.975 0.99,0.96 0.99,2.745 v 1.08 h -5.28 q 0.03,0.945 0.555,1.485 0.54,0.54 1.485,0.54 0.78,0 1.425,-0.15 0.66,-0.165 1.35,-0.495 v 1.725 q -0.615,0.3 -1.275,0.435 -0.66,0.15 -1.605,0.15 -1.23,0 -2.175,-0.45 -0.945,-0.465 -1.485,-1.38 -0.54,-0.93 -0.54,-2.355 0,-1.425 0.48,-2.385 0.495,-0.96 1.365,-1.44 0.87,-0.48 2.025,-0.48 z m 0.015,1.59 q -0.66,0 -1.08,0.42 -0.42,0.42 -0.495,1.305 h 3.135 q -0.015,-0.735 -0.405,-1.23 -0.375,-0.495 -1.155,-0.495 z"
       id="path2624" />
    <path
       d="m 84.267024,18.487626 q 0,1.425 -1.035,2.28 -1.02,0.84 -2.91,0.84 -1.695,0 -3.03,-0.645 v -2.115 q 0.765,0.33 1.575,0.615 0.825,0.27 1.635,0.27 0.84,0 1.185,-0.315 0.36,-0.33 0.36,-0.825 0,-0.405 -0.285,-0.69 -0.27,-0.285 -0.735,-0.525 -0.465,-0.255 -1.065,-0.54 -0.375,-0.18 -0.81,-0.42 -0.435,-0.255 -0.84,-0.615 -0.39,-0.375 -0.645,-0.9 -0.255,-0.525 -0.255,-1.26 0,-1.44 0.975,-2.235 0.975,-0.81 2.655,-0.81 0.84,0 1.59,0.195 0.75,0.195 1.59,0.555 l -0.735,1.77 q -0.735,-0.3 -1.32,-0.465 -0.585,-0.165 -1.2,-0.165 -0.645,0 -0.99,0.3 -0.345,0.3 -0.345,0.78 0,0.57 0.51,0.9 0.51,0.33 1.515,0.81 0.825,0.39 1.395,0.81 0.585,0.42 0.9,0.99 0.315,0.57 0.315,1.41 z"
       id="path2626" />
    <path
       d="m 89.367031,21.607626 q -1.83,0 -2.835,-1.005 -0.99,-1.005 -0.99,-3.195 0,-1.5 0.51,-2.445 0.51,-0.945 1.41,-1.395 0.915,-0.45 2.1,-0.45 0.84,0 1.455,0.165 0.63,0.165 1.095,0.39 l -0.66,1.725 q -0.525,-0.21 -0.99,-0.345 -0.45,-0.135 -0.9,-0.135 -1.74,0 -1.74,2.475 0,1.23 0.45,1.815 0.465,0.585 1.29,0.585 0.705,0 1.245,-0.18 0.54,-0.195 1.05,-0.525 v 1.905 q -0.51,0.33 -1.08,0.465 -0.555,0.15 -1.41,0.15 z"
       id="path2628" />
    <path
       d="m 98.32203,13.117626 q 0.165,0 0.39,0.015 0.225,0.015 0.36,0.045 l -0.165,2.1 q -0.12,-0.03 -0.315,-0.045 -0.195,-0.03 -0.345,-0.03 -0.57,0 -1.095,0.21 -0.525,0.195 -0.855,0.645 -0.315,0.45 -0.315,1.23 v 4.17 h -2.235 v -8.19 h 1.695 l 0.33,1.38 h 0.105 q 0.36,-0.63 0.99,-1.08 0.63,-0.45 1.455,-0.45 z"
       id="path2630" />
    <path
       d="m 101.68204,10.057626 q 0.495,0 0.855,0.24 0.36,0.225 0.36,0.855 0,0.615 -0.36,0.855 -0.36,0.24 -0.855,0.24 -0.51,0 -0.87,-0.24 -0.345,-0.24 -0.345,-0.855 0,-0.63 0.345,-0.855 0.36,-0.24 0.87,-0.24 z m 1.11,3.21 v 8.19 h -2.235 v -8.19 z"
       id="path2632" />
    <path
       d="m 109.69204,13.117626 q 1.38,0 2.235,1.08 0.855,1.065 0.855,3.15 0,2.1 -0.885,3.18 -0.885,1.08 -2.265,1.08 -0.885,0 -1.41,-0.315 -0.525,-0.33 -0.855,-0.735 h -0.12 q 0.12,0.63 0.12,1.2 v 3.3 h -2.235 v -11.79 h 1.815 l 0.315,1.065 h 0.105 q 0.33,-0.495 0.885,-0.855 0.555,-0.36 1.44,-0.36 z m -0.72,1.785 q -0.87,0 -1.23,0.555 -0.36,0.54 -0.375,1.635 v 0.24 q 0,1.185 0.345,1.83 0.36,0.63 1.29,0.63 0.765,0 1.125,-0.63 0.375,-0.645 0.375,-1.845 0,-2.415 -1.53,-2.415 z"
       id="path2634" />
    <path
       d="m 118.07704,19.822626 q 0.375,0 0.72,-0.06 0.345,-0.075 0.69,-0.195 v 1.665 q -0.36,0.165 -0.9,0.27 -0.525,0.105 -1.155,0.105 -0.735,0 -1.32,-0.24 -0.57,-0.24 -0.915,-0.825 -0.33,-0.585 -0.33,-1.65 v -3.945 h -1.065 v -0.945 l 1.23,-0.75 0.645,-1.725 h 1.425 v 1.74 h 2.295 v 1.68 h -2.295 v 3.945 q 0,0.465 0.27,0.705 0.27,0.225 0.705,0.225 z"
       id="path2636" />
  </g>
  <g
     aria-label="TS"
     id="text2537"
     style="font-size:22px;line-height:1.25;fill:#ffffff"
     class="UnoptimicedTransforms">
    <path
       d="m 13.860509,29.288136 h -3.322 v -12.936 H 6.2705092 v -2.772 H 18.128509 v 2.772 h -4.268 z"
       style="font-weight:bold;-inkscape-font-specification:'sans-serif Bold'"
       id="path2758" />
    <path
       d="m 29.81052,24.932136 q 0,2.09 -1.518,3.344 -1.496,1.232 -4.268,1.232 -2.486,0 -4.444,-0.946 v -3.102 q 1.122,0.484 2.31,0.902 1.21,0.396 2.398,0.396 1.232,0 1.738,-0.462 0.528,-0.484 0.528,-1.21 0,-0.594 -0.418,-1.012 -0.396,-0.418 -1.078,-0.77 -0.682,-0.374 -1.562,-0.792 -0.55,-0.264 -1.188,-0.616 -0.638,-0.374 -1.232,-0.902 -0.572,-0.55 -0.946,-1.32 -0.374,-0.77 -0.374,-1.848 0,-2.112 1.43,-3.278 1.43,-1.188 3.894,-1.188 1.232,0 2.332,0.286 1.1,0.286 2.332,0.814 l -1.078,2.596 q -1.078,-0.44 -1.936,-0.682 -0.858,-0.242 -1.76,-0.242 -0.946,0 -1.452,0.44 -0.506,0.44 -0.506,1.144 0,0.836 0.748,1.32 0.748,0.484 2.222,1.188 1.21,0.572 2.046,1.188 0.858,0.616 1.32,1.452 0.462,0.836 0.462,2.068 z"
       style="font-weight:bold;-inkscape-font-specification:'sans-serif Bold'"
       id="path2760" />
  </g>
</svg>
