<?xml version="1.0" encoding="UTF-8" standalone="no"?>
<svg
   width="130"
   height="32"
   viewBox="0 0 130 32"
   fill="none"
   version="1.1"
   id="svg19"
   sodipodi:docname="js.svg"
   inkscape:version="1.2.1 (9c6d41e410, 2022-07-14)"
   xmlns:inkscape="http://www.inkscape.org/namespaces/inkscape"
   xmlns:sodipodi="http://sodipodi.sourceforge.net/DTD/sodipodi-0.dtd"
   xmlns="http://www.w3.org/2000/svg"
   xmlns:svg="http://www.w3.org/2000/svg">
  <sodipodi:namedview
     id="namedview21"
     pagecolor="#ffffff"
     bordercolor="#666666"
     borderopacity="1.0"
     inkscape:showpageshadow="2"
     inkscape:pageopacity="0.0"
     inkscape:pagecheckerboard="0"
     inkscape:deskcolor="#d1d1d1"
     showgrid="false"
     inkscape:zoom="7.375"
     inkscape:cx="64.271186"
     inkscape:cy="0.54237288"
     inkscape:window-width="1920"
     inkscape:window-height="1009"
     inkscape:window-x="1432"
     inkscape:window-y="-8"
     inkscape:window-maximized="1"
     inkscape:current-layer="svg19" />
  <path
     d="M125 0H31V32H125C127.761 32 130 29.7614 130 27V5C130 2.23858 127.761 0 125 0Z"
     fill="#0F1418"
     id="path2" />
  <path
     d="M31 0H5C2.23858 0 0 2.23858 0 5V27C0 29.7614 2.23858 32 5 32H31V0Z"
     fill="#F1C731"
     id="path4"
     style="fill:#2f72bc;fill-opacity:1.0" />
  <path
     d="M 125,-2.6101695e-7 H 5 C 2.23858,-2.6101695e-7 0,2.2385797 0,4.9999997 V 26.999999 c 0,2.7614 2.23858,5 5,5 h 120 c 2.761,0 5,-2.2386 5,-5 V 4.9999997 C 130,2.2385797 127.761,-2.6101695e-7 125,-2.6101695e-7 Z"
     fill="url(#paint0_linear)"
     id="path10"
     style="fill:url(#paint0_linear)" />
  <defs
     id="defs17">
    <linearGradient
       id="paint0_linear"
       x1="0"
       y1="0"
       x2="0"
       y2="32"
       gradientUnits="userSpaceOnUse">
      <stop
         stop-color="#BBBBBB"
         stop-opacity="0.1"
         id="stop12" />
      <stop
         offset="1"
         stop-opacity="0.1"
         id="stop14" />
    </linearGradient>
  </defs>
  <text
     xml:space="preserve"
     style="font-style:normal;font-variant:normal;font-weight:bold;font-stretch:normal;font-size:15px;line-height:1.25;font-family:sans-serif;-inkscape-font-specification:'sans-serif Bold';fill:#ffffff;fill-opacity:1;stroke:none"
     x="41.322033"
     y="21.457626"
     id="text1757"><tspan
       sodipodi:role="line"
       id="tspan1755"
       x="41.322033"
       y="21.457626"
       style="font-size:15px">TypeScript</tspan></text>
  <text
     xml:space="preserve"
     style="font-style:normal;font-weight:normal;font-size:22px;line-height:1.25;font-family:sans-serif;fill:#ffffff;fill-opacity:1;stroke:none"
     x="5.8305092"
     y="29.288136"
     id="text2537"><tspan
       sodipodi:role="line"
       id="tspan2535"
       x="5.8305092"
       y="29.288136"
       style="font-style:normal;font-variant:normal;font-weight:bold;font-stretch:normal;font-size:22px;font-family:sans-serif;-inkscape-font-specification:'sans-serif Bold'">TS</tspan></text>
</svg>
